{"title":"The Hobbit: An Unexpected Journey - Extented *2013* (60 FPS) [7","uid":9270361,"size":22875389997,"categoryP":"video","categoryS":"hd___movies","magnet":"?xt=urn:btih:7e86095597c25fd8762ea46c2094dfc1a8aa871c&amp;dn=+The+Hobbit%3A+An+Unexpected+Journey+-+Extented+%2A2013%2A+%2860+FPS%29+%5B7&amp;tr=udp%3A%2F%2Ftracker.openbittorrent.com%3A80&amp;tr=udp%3A%2F%2Fopen.demonii.com%3A1337&amp;tr=udp%3A%2F%2Ftracker.coppersurfer.tk%3A6969&amp;tr=udp%3A%2F%2Fexodus.desync.com%3A6969","seeders":1,"leechers":1,"uploader":"sonywo","files":-1,"time":1385763372,"description":"Video\n\nFormat : AVC\nFormat/Info : Advanced Video Codec\nFormat profile : &lt;a class=&quot;__cf_email__&quot; href=&quot;/cdn-cgi/l/email-protection&quot; data-cfemail=&quot;3b73525c537b770f150a&quot;&gt;[email&amp;#160;protected]&lt;/a&gt;&lt;script cf-hash='f9e31' type=&quot;text/javascript&quot;&gt;\n/* &lt;![CDATA[ */!function(){try{var t=&quot;currentScript&quot;in document?document.currentScript:function(){for(var t=document.getElementsByTagName(&quot;script&quot;),e=t.length;e--;)if(t[e].getAttribute(&quot;cf-hash&quot;))return t[e]}();if(t&amp;&amp;t.previousSibling){var e,r,n,i,c=t.previousSibling,a=c.getAttribute(&quot;data-cfemail&quot;);if(a){for(e=&quot;&quot;,r=parseInt(a.substr(0,2),16),n=2;a.length-n;n+=2)i=parseInt(a.substr(n,2),16)^r,e+=String.fromCharCode(i);e=document.createTextNode(e),c.parentNode.replaceChild(e,c)}}}catch(u){}}();/* ]]&gt; */&lt;/script&gt;\nFormat settings, CABAC : Yes\nFormat settings, ReFrames : 11 frames\nCodec ID : V_MPEG4/ISO/AVC\nDuration : 3h 2mn\nBit rate : 13.9 Mbps\nNominal bit rate : 10.5 Mbps\nWidth : 1 280 pixels\nHeight : 534 pixels\nDisplay aspect ratio : 2.40:1\nFrame rate : 59.940 fps\nColor space : YUV\nLanguage : English\nDefault : Yes\nForced : No\n\nAudio 1\n\nFormat : AC-3\nFormat/Info : Audio Coding 3\nMode extension : CM (complete main)\nFormat settings, Endianness : Big\nCodec ID : A_AC3\nDuration : 3h 2mn\nBit rate mode : Constant\nBit rate : 448 Kbps\nChannel(s) : 6 channels\nChannel positions : Front: L C R, Side: L R, LFE\nSampling rate : 48.0 KHz\nBit depth : 16 bits\nCompression mode : Lossy\nStream size : 585 MiB (3%)\nTitle : ????????\nLanguage : English\nDefault : Yes\nForced : No\n\nAudio 2\n\nFormat : AC-3\nFormat/Info : Audio Coding 3\nMode extension : CM (complete main)\nFormat settings, Endianness : Big\nCodec ID : A_AC3\nDuration : 3h 2mn\nBit rate mode : Constant\nBit rate : 448 Kbps\nChannel(s) : 6 channels\nChannel positions : Front: L C R, Side: L R, LFE\nSampling rate : 48.0 KHz\nBit depth : 16 bits\nCompression mode : Lossy\nStream size : 585 MiB (3%)\nDefault : No\nForced : No\nAudio 3\n\nFormat : DTS\nFormat/Info : Digital Theater Systems\nFormat profile : MA / Core\nCodec ID : A_DTS\nDuration : 3h 2mn\nBit rate mode : Variable\nBit rate : 1 597 Kbps / 1 510 Kbps\nChannel(s) : 8 channels / 6 channels\nChannel positions : Front: L C R, Side: L R, Back: L R, LFE / Front: L C R, Side: L R, LFE\nSampling rate : 48.0 KHz\nBit depth : 24 bits\nCompression mode : Lossless / Lossy\nTitle : ????????\nLanguage : English\nDefault : No\nForced : No\n\nText 1\n\nFormat : UTF-8\nCodec ID : S_TEXT/UTF8\nCodec ID/Info : UTF-8 Plain Text\nTitle : eng force\nLanguage : English\nDefault : Yes\nForced : No\n\nText 2\n\nFormat : UTF-8\nCodec ID : S_TEXT/UTF8\nCodec ID/Info : UTF-8 Plain Text\nTitle : eng\nLanguage : English\nDefault : No\nForced : No\n\nText 3\n\nFormat : UTF-8\nCodec ID : S_TEXT/UTF8\nCodec ID/Info : UTF-8 Plain Text\nDefault : No\nForced : No\nLanguage :Polskie ","torrent":{"xt":"urn:btih:7e86095597c25fd8762ea46c2094dfc1a8aa871c","amp;dn":"+The+Hobbit%3A+An+Unexpected+Journey+-+Extented+%2A2013%2A+%2860+FPS%29+%5B7","amp;tr":["udp%3A%2F%2Ftracker.openbittorrent.com%3A80","udp%3A%2F%2Fopen.demonii.com%3A1337","udp%3A%2F%2Ftracker.coppersurfer.tk%3A6969","udp%3A%2F%2Fexodus.desync.com%3A6969"],"infoHash":"7e86095597c25fd8762ea46c2094dfc1a8aa871c","infoHashBuffer":{"type":"Buffer","data":[126,134,9,85,151,194,95,216,118,46,164,108,32,148,223,193,168,170,135,28]},"announce":[],"urlList":[]}}